<svg version="1.2" xmlns="http://www.w3.org/2000/svg" viewBox="0 0 32 32" width="32" height="32"><style></style><filter id="f0"><feFlood flood-color="#f9f9f9" flood-opacity="1" /><feBlend mode="normal" in2="SourceGraphic"/><feComposite in2="SourceAlpha" operator="in" /></filter><g filter="url(#f0)"><path fill-rule="evenodd" d="m28.8 8.7q0.3 0.3 0.3 0.7 0 0.4-0.3 0.7-0.3 0.3-0.7 0.3h-3.4v12.3c0 1.9-1.2 3.7-3.1 4.5-1.8 0.7-3.9 0.3-5.3-1.1-1.4-1.4-1.8-3.5-1.1-5.3 0.8-1.8 2.6-3 4.6-3q0.4 0 0.7 0 0.4 0.1 0.8 0.2 0.4 0.2 0.7 0.3 0.4 0.2 0.7 0.5v-9.4q0-0.2 0-0.4 0.1-0.1 0.3-0.3 0.1-0.1 0.3-0.2 0.2-0.1 0.4-0.1h4.4q0.4 0 0.7 0.3zm-7.9 16.7q0.5-0.2 0.9-0.6 0.4-0.5 0.6-1 0.3-0.5 0.3-1.1c0-1.2-0.7-2.2-1.8-2.7-1.1-0.4-2.4-0.2-3.2 0.6-0.8 0.9-1.1 2.1-0.6 3.2 0.4 1.1 1.5 1.8 2.7 1.8q0.5 0 1.1-0.2z"/><path  d="m3.9 10.4h13.4q0.4 0 0.7-0.3 0.3-0.3 0.3-0.7 0-0.4-0.3-0.7-0.3-0.3-0.7-0.3h-13.4q-0.4 0-0.7 0.3-0.3 0.3-0.3 0.7 0 0.4 0.3 0.7 0.3 0.3 0.7 0.3z"/><path  d="m3.9 17.1h13.4q0.4 0 0.7-0.3 0.3-0.3 0.3-0.7 0-0.4-0.3-0.7-0.3-0.3-0.7-0.3h-13.4q-0.4 0-0.7 0.3-0.3 0.3-0.3 0.7 0 0.4 0.3 0.7 0.3 0.3 0.7 0.3z"/><path  d="m12.6 21.7h-8.5q-0.4 0-0.7 0.3-0.3 0.3-0.3 0.7 0 0.4 0.3 0.7 0.3 0.3 0.7 0.3h8.4q0.5 0 0.8-0.3 0.2-0.3 0.2-0.7 0-0.4-0.2-0.7-0.3-0.3-0.7-0.3z"/></g></svg>